<svg xmlns="http://www.w3.org/2000/svg" xmlns:xlink="http://www.w3.org/1999/xlink" width="1080" zoomAndPan="magnify" viewBox="0 0 810 809.999993" height="1080" preserveAspectRatio="xMidYMid meet" version="1.0"><defs><clipPath id="58e65052ce"><path d="M 59.035156 59.035156 L 751.285156 59.035156 L 751.285156 751.285156 L 59.035156 751.285156 Z M 59.035156 59.035156 " clip-rule="nonzero"/></clipPath></defs><g clip-path="url(#58e65052ce)"><path fill="#ffffff" d="M 221.28125 59.035156 L 589.039062 59.035156 C 591.691406 59.035156 594.347656 59.097656 597 59.230469 C 599.652344 59.359375 602.296875 59.554688 604.941406 59.816406 C 607.582031 60.074219 610.21875 60.398438 612.84375 60.789062 C 615.472656 61.179688 618.085938 61.632812 620.691406 62.152344 C 623.292969 62.667969 625.882812 63.25 628.460938 63.894531 C 631.035156 64.542969 633.59375 65.25 636.136719 66.019531 C 638.675781 66.789062 641.195312 67.625 643.695312 68.519531 C 646.195312 69.414062 648.671875 70.367188 651.125 71.382812 C 653.578125 72.398438 656.007812 73.476562 658.40625 74.609375 C 660.808594 75.746094 663.179688 76.941406 665.519531 78.191406 C 667.863281 79.445312 670.171875 80.75 672.449219 82.117188 C 674.726562 83.480469 676.96875 84.902344 679.175781 86.378906 C 681.382812 87.851562 683.554688 89.382812 685.6875 90.960938 C 687.820312 92.542969 689.914062 94.175781 691.964844 95.863281 C 694.019531 97.546875 696.027344 99.28125 697.996094 101.0625 C 699.964844 102.847656 701.886719 104.675781 703.761719 106.554688 C 705.640625 108.433594 707.472656 110.355469 709.253906 112.320312 C 711.039062 114.289062 712.769531 116.300781 714.457031 118.351562 C 716.140625 120.40625 717.773438 122.496094 719.355469 124.628906 C 720.9375 126.761719 722.464844 128.933594 723.941406 131.140625 C 725.414062 133.347656 726.835938 135.589844 728.199219 137.867188 C 729.566406 140.144531 730.875 142.457031 732.125 144.796875 C 733.378906 147.140625 734.570312 149.511719 735.707031 151.910156 C 736.839844 154.3125 737.917969 156.738281 738.933594 159.191406 C 739.949219 161.644531 740.90625 164.121094 741.800781 166.621094 C 742.695312 169.121094 743.527344 171.640625 744.296875 174.183594 C 745.070312 176.722656 745.777344 179.28125 746.421875 181.855469 C 747.066406 184.433594 747.648438 187.023438 748.167969 189.628906 C 748.683594 192.230469 749.136719 194.847656 749.527344 197.472656 C 749.917969 200.101562 750.242188 202.734375 750.503906 205.378906 C 750.761719 208.019531 750.957031 210.667969 751.089844 213.320312 C 751.21875 215.972656 751.285156 218.625 751.285156 221.28125 L 751.285156 589.039062 C 751.285156 591.691406 751.21875 594.347656 751.089844 597 C 750.957031 599.652344 750.761719 602.296875 750.503906 604.941406 C 750.242188 607.582031 749.917969 610.21875 749.527344 612.84375 C 749.136719 615.472656 748.683594 618.085938 748.167969 620.691406 C 747.648438 623.292969 747.066406 625.882812 746.421875 628.460938 C 745.777344 631.035156 745.070312 633.59375 744.296875 636.136719 C 743.527344 638.675781 742.695312 641.195312 741.800781 643.695312 C 740.90625 646.195312 739.949219 648.671875 738.933594 651.125 C 737.917969 653.578125 736.839844 656.007812 735.707031 658.40625 C 734.570312 660.808594 733.378906 663.179688 732.125 665.519531 C 730.875 667.863281 729.566406 670.171875 728.199219 672.449219 C 726.835938 674.726562 725.414062 676.96875 723.941406 679.175781 C 722.464844 681.382812 720.9375 683.554688 719.355469 685.6875 C 717.773438 687.820312 716.140625 689.914062 714.457031 691.964844 C 712.769531 694.019531 711.039062 696.027344 709.253906 697.996094 C 707.472656 699.964844 705.640625 701.886719 703.761719 703.761719 C 701.886719 705.640625 699.964844 707.472656 697.996094 709.253906 C 696.027344 711.039062 694.019531 712.769531 691.964844 714.457031 C 689.914062 716.140625 687.820312 717.773438 685.6875 719.355469 C 683.554688 720.9375 681.382812 722.464844 679.175781 723.941406 C 676.96875 725.414062 674.726562 726.835938 672.449219 728.199219 C 670.171875 729.566406 667.863281 730.875 665.519531 732.125 C 663.179688 733.378906 660.808594 734.570312 658.40625 735.707031 C 656.007812 736.839844 653.578125 737.917969 651.125 738.933594 C 648.671875 739.949219 646.195312 740.90625 643.695312 741.800781 C 641.195312 742.695312 638.675781 743.527344 636.136719 744.296875 C 633.59375 745.070312 631.035156 745.777344 628.460938 746.421875 C 625.882812 747.066406 623.292969 747.648438 620.691406 748.167969 C 618.085938 748.683594 615.472656 749.136719 612.84375 749.527344 C 610.21875 749.917969 607.582031 750.242188 604.941406 750.503906 C 602.296875 750.761719 599.652344 750.957031 597 751.089844 C 594.347656 751.21875 591.691406 751.285156 589.039062 751.285156 L 221.28125 751.285156 C 218.625 751.285156 215.972656 751.21875 213.320312 751.089844 C 210.667969 750.957031 208.019531 750.761719 205.378906 750.503906 C 202.734375 750.242188 200.101562 749.917969 197.472656 749.527344 C 194.847656 749.136719 192.230469 748.683594 189.628906 748.167969 C 187.023438 747.648438 184.433594 747.066406 181.855469 746.421875 C 179.28125 745.777344 176.722656 745.070312 174.183594 744.296875 C 171.640625 743.527344 169.121094 742.695312 166.621094 741.800781 C 164.121094 740.90625 161.644531 739.949219 159.191406 738.933594 C 156.738281 737.917969 154.3125 736.839844 151.910156 735.707031 C 149.511719 734.570312 147.140625 733.378906 144.796875 732.125 C 142.457031 730.875 140.144531 729.566406 137.867188 728.199219 C 135.589844 726.835938 133.347656 725.414062 131.140625 723.941406 C 128.933594 722.464844 126.761719 720.9375 124.628906 719.355469 C 122.496094 717.773438 120.40625 716.140625 118.351562 714.457031 C 116.300781 712.769531 114.289062 711.039062 112.320312 709.253906 C 110.355469 707.472656 108.433594 705.640625 106.554688 703.761719 C 104.675781 701.886719 102.847656 699.964844 101.0625 697.996094 C 99.28125 696.027344 97.546875 694.019531 95.863281 691.964844 C 94.175781 689.914062 92.542969 687.820312 90.960938 685.6875 C 89.382812 683.554688 87.851562 681.382812 86.378906 679.175781 C 84.902344 676.96875 83.480469 674.726562 82.117188 672.449219 C 80.75 670.171875 79.445312 667.863281 78.191406 665.519531 C 76.941406 663.179688 75.746094 660.808594 74.609375 658.40625 C 73.476562 656.007812 72.398438 653.578125 71.382812 651.125 C 70.367188 648.671875 69.414062 646.195312 68.519531 643.695312 C 67.625 641.195312 66.789062 638.675781 66.019531 636.136719 C 65.25 633.59375 64.542969 631.035156 63.894531 628.460938 C 63.25 625.882812 62.667969 623.292969 62.152344 620.691406 C 61.632812 618.085938 61.179688 615.472656 60.789062 612.84375 C 60.398438 610.21875 60.074219 607.582031 59.816406 604.941406 C 59.554688 602.296875 59.359375 599.652344 59.230469 597 C 59.097656 594.347656 59.035156 591.691406 59.035156 589.039062 L 59.035156 221.28125 C 59.035156 218.625 59.097656 215.972656 59.230469 213.320312 C 59.359375 210.667969 59.554688 208.019531 59.816406 205.378906 C 60.074219 202.734375 60.398438 200.101562 60.789062 197.472656 C 61.179688 194.847656 61.632812 192.230469 62.152344 189.628906 C 62.667969 187.023438 63.25 184.433594 63.894531 181.855469 C 64.542969 179.28125 65.25 176.722656 66.019531 174.183594 C 66.789062 171.640625 67.625 169.121094 68.519531 166.621094 C 69.414062 164.121094 70.367188 161.644531 71.382812 159.191406 C 72.398438 156.738281 73.476562 154.3125 74.609375 151.910156 C 75.746094 149.511719 76.941406 147.140625 78.191406 144.796875 C 79.445312 142.457031 80.75 140.144531 82.117188 137.867188 C 83.480469 135.589844 84.902344 133.347656 86.378906 131.140625 C 87.851562 128.933594 89.382812 126.761719 90.960938 124.628906 C 92.542969 122.496094 94.175781 120.40625 95.863281 118.351562 C 97.546875 116.300781 99.28125 114.289062 101.0625 112.320312 C 102.847656 110.355469 104.675781 108.433594 106.554688 106.554688 C 108.433594 104.675781 110.355469 102.847656 112.320312 101.0625 C 114.289062 99.28125 116.300781 97.546875 118.351562 95.863281 C 120.40625 94.175781 122.496094 92.542969 124.628906 90.960938 C 126.761719 89.382812 128.933594 87.851562 131.140625 86.378906 C 133.347656 84.902344 135.589844 83.480469 137.867188 82.117188 C 140.144531 80.75 142.457031 79.445312 144.796875 78.191406 C 147.140625 76.941406 149.511719 75.746094 151.910156 74.609375 C 154.3125 73.476562 156.738281 72.398438 159.191406 71.382812 C 161.644531 70.367188 164.121094 69.414062 166.621094 68.519531 C 169.121094 67.625 171.640625 66.789062 174.183594 66.019531 C 176.722656 65.25 179.28125 64.542969 181.855469 63.894531 C 184.433594 63.25 187.023438 62.667969 189.628906 62.152344 C 192.230469 61.632812 194.847656 61.179688 197.472656 60.789062 C 200.101562 60.398438 202.734375 60.074219 205.378906 59.816406 C 208.019531 59.554688 210.667969 59.359375 213.320312 59.230469 C 215.972656 59.097656 218.625 59.035156 221.28125 59.035156 Z M 221.28125 59.035156 " fill-opacity="1" fill-rule="nonzero"/><path fill="#0a66c2" d="M 221.28125 59.035156 L 589.039062 59.035156 C 591.691406 59.035156 594.347656 59.097656 597 59.230469 C 599.652344 59.359375 602.296875 59.554688 604.941406 59.816406 C 607.582031 60.074219 610.21875 60.398438 612.84375 60.789062 C 615.472656 61.179688 618.085938 61.632812 620.691406 62.152344 C 623.292969 62.667969 625.882812 63.25 628.460938 63.894531 C 631.035156 64.542969 633.59375 65.25 636.136719 66.019531 C 638.675781 66.789062 641.195312 67.625 643.695312 68.519531 C 646.195312 69.414062 648.671875 70.367188 651.125 71.382812 C 653.578125 72.398438 656.007812 73.476562 658.40625 74.609375 C 660.808594 75.746094 663.179688 76.941406 665.519531 78.191406 C 667.863281 79.445312 670.171875 80.75 672.449219 82.117188 C 674.726562 83.480469 676.96875 84.902344 679.175781 86.378906 C 681.382812 87.851562 683.554688 89.382812 685.6875 90.960938 C 687.820312 92.542969 689.914062 94.175781 691.964844 95.863281 C 694.019531 97.546875 696.027344 99.28125 697.996094 101.0625 C 699.964844 102.847656 701.886719 104.675781 703.761719 106.554688 C 705.640625 108.433594 707.472656 110.355469 709.253906 112.320312 C 711.039062 114.289062 712.769531 116.300781 714.457031 118.351562 C 716.140625 120.40625 717.773438 122.496094 719.355469 124.628906 C 720.9375 126.761719 722.464844 128.933594 723.941406 131.140625 C 725.414062 133.347656 726.835938 135.589844 728.199219 137.867188 C 729.566406 140.144531 730.875 142.457031 732.125 144.796875 C 733.378906 147.140625 734.570312 149.511719 735.707031 151.910156 C 736.839844 154.3125 737.917969 156.738281 738.933594 159.191406 C 739.949219 161.644531 740.90625 164.121094 741.800781 166.621094 C 742.695312 169.121094 743.527344 171.640625 744.296875 174.183594 C 745.070312 176.722656 745.777344 179.28125 746.421875 181.855469 C 747.066406 184.433594 747.648438 187.023438 748.167969 189.628906 C 748.683594 192.230469 749.136719 194.847656 749.527344 197.472656 C 749.917969 200.101562 750.242188 202.734375 750.503906 205.378906 C 750.761719 208.019531 750.957031 210.667969 751.089844 213.320312 C 751.21875 215.972656 751.285156 218.625 751.285156 221.28125 L 751.285156 589.039062 C 751.285156 591.691406 751.21875 594.347656 751.089844 597 C 750.957031 599.652344 750.761719 602.296875 750.503906 604.941406 C 750.242188 607.582031 749.917969 610.21875 749.527344 612.84375 C 749.136719 615.472656 748.683594 618.085938 748.167969 620.691406 C 747.648438 623.292969 747.066406 625.882812 746.421875 628.460938 C 745.777344 631.035156 745.070312 633.59375 744.296875 636.136719 C 743.527344 638.675781 742.695312 641.195312 741.800781 643.695312 C 740.90625 646.195312 739.949219 648.671875 738.933594 651.125 C 737.917969 653.578125 736.839844 656.007812 735.707031 658.40625 C 734.570312 660.808594 733.378906 663.179688 732.125 665.519531 C 730.875 667.863281 729.566406 670.171875 728.199219 672.449219 C 726.835938 674.726562 725.414062 676.96875 723.941406 679.175781 C 722.464844 681.382812 720.9375 683.554688 719.355469 685.6875 C 717.773438 687.820312 716.140625 689.914062 714.457031 691.964844 C 712.769531 694.019531 711.039062 696.027344 709.253906 697.996094 C 707.472656 699.964844 705.640625 701.886719 703.761719 703.761719 C 701.886719 705.640625 699.964844 707.472656 697.996094 709.253906 C 696.027344 711.039062 694.019531 712.769531 691.964844 714.457031 C 689.914062 716.140625 687.820312 717.773438 685.6875 719.355469 C 683.554688 720.9375 681.382812 722.464844 679.175781 723.941406 C 676.96875 725.414062 674.726562 726.835938 672.449219 728.199219 C 670.171875 729.566406 667.863281 730.875 665.519531 732.125 C 663.179688 733.378906 660.808594 734.570312 658.40625 735.707031 C 656.007812 736.839844 653.578125 737.917969 651.125 738.933594 C 648.671875 739.949219 646.195312 740.90625 643.695312 741.800781 C 641.195312 742.695312 638.675781 743.527344 636.136719 744.296875 C 633.59375 745.070312 631.035156 745.777344 628.460938 746.421875 C 625.882812 747.066406 623.292969 747.648438 620.691406 748.167969 C 618.085938 748.683594 615.472656 749.136719 612.84375 749.527344 C 610.21875 749.917969 607.582031 750.242188 604.941406 750.503906 C 602.296875 750.761719 599.652344 750.957031 597 751.089844 C 594.347656 751.21875 591.691406 751.285156 589.039062 751.285156 L 221.28125 751.285156 C 218.625 751.285156 215.972656 751.21875 213.320312 751.089844 C 210.667969 750.957031 208.019531 750.761719 205.378906 750.503906 C 202.734375 750.242188 200.101562 749.917969 197.472656 749.527344 C 194.847656 749.136719 192.230469 748.683594 189.628906 748.167969 C 187.023438 747.648438 184.433594 747.066406 181.855469 746.421875 C 179.28125 745.777344 176.722656 745.070312 174.183594 744.296875 C 171.640625 743.527344 169.121094 742.695312 166.621094 741.800781 C 164.121094 740.90625 161.644531 739.949219 159.191406 738.933594 C 156.738281 737.917969 154.3125 736.839844 151.910156 735.707031 C 149.511719 734.570312 147.140625 733.378906 144.796875 732.125 C 142.457031 730.875 140.144531 729.566406 137.867188 728.199219 C 135.589844 726.835938 133.347656 725.414062 131.140625 723.941406 C 128.933594 722.464844 126.761719 720.9375 124.628906 719.355469 C 122.496094 717.773438 120.40625 716.140625 118.351562 714.457031 C 116.300781 712.769531 114.289062 711.039062 112.320312 709.253906 C 110.355469 707.472656 108.433594 705.640625 106.554688 703.761719 C 104.675781 701.886719 102.847656 699.964844 101.0625 697.996094 C 99.28125 696.027344 97.546875 694.019531 95.863281 691.964844 C 94.175781 689.914062 92.542969 687.820312 90.960938 685.6875 C 89.382812 683.554688 87.851562 681.382812 86.378906 679.175781 C 84.902344 676.96875 83.480469 674.726562 82.117188 672.449219 C 80.75 670.171875 79.445312 667.863281 78.191406 665.519531 C 76.941406 663.179688 75.746094 660.808594 74.609375 658.40625 C 73.476562 656.007812 72.398438 653.578125 71.382812 651.125 C 70.367188 648.671875 69.414062 646.195312 68.519531 643.695312 C 67.625 641.195312 66.789062 638.675781 66.019531 636.136719 C 65.25 633.59375 64.542969 631.035156 63.894531 628.460938 C 63.25 625.882812 62.667969 623.292969 62.152344 620.691406 C 61.632812 618.085938 61.179688 615.472656 60.789062 612.84375 C 60.398438 610.21875 60.074219 607.582031 59.816406 604.941406 C 59.554688 602.296875 59.359375 599.652344 59.230469 597 C 59.097656 594.347656 59.035156 591.691406 59.035156 589.039062 L 59.035156 221.28125 C 59.035156 218.625 59.097656 215.972656 59.230469 213.320312 C 59.359375 210.667969 59.554688 208.019531 59.816406 205.378906 C 60.074219 202.734375 60.398438 200.101562 60.789062 197.472656 C 61.179688 194.847656 61.632812 192.230469 62.152344 189.628906 C 62.667969 187.023438 63.25 184.433594 63.894531 181.855469 C 64.542969 179.28125 65.25 176.722656 66.019531 174.183594 C 66.789062 171.640625 67.625 169.121094 68.519531 166.621094 C 69.414062 164.121094 70.367188 161.644531 71.382812 159.191406 C 72.398438 156.738281 73.476562 154.3125 74.609375 151.910156 C 75.746094 149.511719 76.941406 147.140625 78.191406 144.796875 C 79.445312 142.457031 80.75 140.144531 82.117188 137.867188 C 83.480469 135.589844 84.902344 133.347656 86.378906 131.140625 C 87.851562 128.933594 89.382812 126.761719 90.960938 124.628906 C 92.542969 122.496094 94.175781 120.40625 95.863281 118.351562 C 97.546875 116.300781 99.28125 114.289062 101.0625 112.320312 C 102.847656 110.355469 104.675781 108.433594 106.554688 106.554688 C 108.433594 104.675781 110.355469 102.847656 112.320312 101.0625 C 114.289062 99.28125 116.300781 97.546875 118.351562 95.863281 C 120.40625 94.175781 122.496094 92.542969 124.628906 90.960938 C 126.761719 89.382812 128.933594 87.851562 131.140625 86.378906 C 133.347656 84.902344 135.589844 83.480469 137.867188 82.117188 C 140.144531 80.75 142.457031 79.445312 144.796875 78.191406 C 147.140625 76.941406 149.511719 75.746094 151.910156 74.609375 C 154.3125 73.476562 156.738281 72.398438 159.191406 71.382812 C 161.644531 70.367188 164.121094 69.414062 166.621094 68.519531 C 169.121094 67.625 171.640625 66.789062 174.183594 66.019531 C 176.722656 65.25 179.28125 64.542969 181.855469 63.894531 C 184.433594 63.25 187.023438 62.667969 189.628906 62.152344 C 192.230469 61.632812 194.847656 61.179688 197.472656 60.789062 C 200.101562 60.398438 202.734375 60.074219 205.378906 59.816406 C 208.019531 59.554688 210.667969 59.359375 213.320312 59.230469 C 215.972656 59.097656 218.625 59.035156 221.28125 59.035156 Z M 221.28125 59.035156 " fill-opacity="1" fill-rule="nonzero"/></g><path fill="#ffffff" d="M 558.523438 647.675781 L 637.671875 647.675781 C 638.382812 647.675781 639.085938 647.605469 639.78125 647.46875 C 640.476562 647.328125 641.152344 647.125 641.808594 646.851562 C 642.464844 646.582031 643.089844 646.25 643.679688 645.855469 C 644.269531 645.460938 644.816406 645.011719 645.320312 644.507812 C 645.820312 644.007812 646.269531 643.460938 646.664062 642.871094 C 647.058594 642.28125 647.390625 641.65625 647.664062 641 C 647.933594 640.34375 648.140625 639.667969 648.277344 638.972656 C 648.417969 638.277344 648.488281 637.574219 648.488281 636.863281 L 648.527344 469.636719 C 648.527344 382.230469 629.695312 315.046875 527.550781 315.046875 C 488.722656 313.601562 452.109375 333.621094 432.347656 367.042969 C 432.25 367.207031 432.109375 367.328125 431.929688 367.402344 C 431.75 367.472656 431.566406 367.484375 431.378906 367.433594 C 431.191406 367.382812 431.039062 367.28125 430.921875 367.128906 C 430.800781 366.972656 430.742188 366.800781 430.738281 366.605469 L 430.738281 333.933594 C 430.738281 333.222656 430.671875 332.519531 430.53125 331.824219 C 430.394531 331.125 430.1875 330.449219 429.917969 329.792969 C 429.644531 329.136719 429.3125 328.515625 428.917969 327.921875 C 428.523438 327.332031 428.074219 326.785156 427.570312 326.285156 C 427.070312 325.78125 426.523438 325.332031 425.933594 324.9375 C 425.34375 324.542969 424.71875 324.210938 424.0625 323.941406 C 423.40625 323.667969 422.730469 323.460938 422.035156 323.324219 C 421.335938 323.1875 420.632812 323.117188 419.921875 323.117188 L 344.8125 323.117188 C 344.101562 323.117188 343.398438 323.1875 342.703125 323.324219 C 342.003906 323.460938 341.328125 323.667969 340.671875 323.941406 C 340.015625 324.210938 339.394531 324.542969 338.800781 324.9375 C 338.210938 325.332031 337.664062 325.78125 337.164062 326.285156 C 336.660156 326.785156 336.210938 327.332031 335.816406 327.921875 C 335.421875 328.515625 335.089844 329.136719 334.816406 329.792969 C 334.546875 330.449219 334.339844 331.125 334.203125 331.824219 C 334.0625 332.519531 333.996094 333.222656 333.996094 333.933594 L 333.996094 636.847656 C 333.996094 637.554688 334.0625 638.261719 334.203125 638.957031 C 334.339844 639.652344 334.546875 640.328125 334.816406 640.984375 C 335.089844 641.640625 335.421875 642.265625 335.816406 642.855469 C 336.210938 643.445312 336.660156 643.992188 337.164062 644.496094 C 337.664062 644.996094 338.210938 645.445312 338.800781 645.839844 C 339.394531 646.234375 340.015625 646.566406 340.671875 646.839844 C 341.328125 647.109375 342.003906 647.316406 342.703125 647.453125 C 343.398438 647.59375 344.101562 647.664062 344.8125 647.664062 L 423.953125 647.664062 C 424.664062 647.664062 425.367188 647.59375 426.066406 647.453125 C 426.761719 647.316406 427.4375 647.109375 428.09375 646.839844 C 428.75 646.566406 429.375 646.234375 429.964844 645.839844 C 430.554688 645.445312 431.101562 644.996094 431.601562 644.496094 C 432.105469 643.992188 432.554688 643.445312 432.949219 642.855469 C 433.34375 642.265625 433.675781 641.640625 433.949219 640.984375 C 434.21875 640.328125 434.425781 639.652344 434.5625 638.957031 C 434.703125 638.261719 434.769531 637.554688 434.769531 636.847656 L 434.769531 487.113281 C 434.769531 444.773438 442.800781 403.773438 495.292969 403.773438 C 547.035156 403.773438 547.707031 452.21875 547.707031 489.855469 L 547.707031 636.859375 C 547.707031 637.570312 547.773438 638.273438 547.914062 638.96875 C 548.050781 639.667969 548.257812 640.34375 548.527344 641 C 548.800781 641.65625 549.132812 642.277344 549.527344 642.867188 C 549.921875 643.460938 550.371094 644.007812 550.875 644.507812 C 551.375 645.011719 551.921875 645.457031 552.511719 645.851562 C 553.101562 646.246094 553.726562 646.582031 554.382812 646.851562 C 555.039062 647.125 555.714844 647.328125 556.410156 647.46875 C 557.109375 647.605469 557.8125 647.675781 558.523438 647.675781 M 161.789062 220.273438 C 161.789062 252.355469 188.199219 278.753906 220.285156 278.753906 C 252.359375 278.75 278.753906 252.335938 278.753906 220.261719 C 278.75 188.183594 252.351562 161.789062 220.273438 161.789062 C 188.1875 161.789062 161.789062 188.191406 161.789062 220.269531 M 180.609375 647.675781 L 259.855469 647.675781 C 260.566406 647.675781 261.269531 647.605469 261.96875 647.46875 C 262.664062 647.328125 263.339844 647.125 263.996094 646.851562 C 264.652344 646.582031 265.277344 646.246094 265.867188 645.851562 C 266.457031 645.457031 267.003906 645.011719 267.503906 644.507812 C 268.007812 644.007812 268.457031 643.460938 268.851562 642.867188 C 269.246094 642.277344 269.578125 641.65625 269.851562 641 C 270.121094 640.34375 270.328125 639.667969 270.464844 638.96875 C 270.605469 638.273438 270.671875 637.570312 270.671875 636.859375 L 270.671875 333.933594 C 270.671875 333.222656 270.605469 332.519531 270.464844 331.824219 C 270.328125 331.125 270.121094 330.449219 269.851562 329.792969 C 269.578125 329.136719 269.246094 328.515625 268.851562 327.921875 C 268.457031 327.332031 268.007812 326.785156 267.503906 326.285156 C 267.003906 325.78125 266.457031 325.332031 265.867188 324.9375 C 265.277344 324.542969 264.652344 324.210938 263.996094 323.941406 C 263.339844 323.667969 262.664062 323.460938 261.96875 323.324219 C 261.269531 323.1875 260.566406 323.117188 259.855469 323.117188 L 180.609375 323.117188 C 179.898438 323.117188 179.195312 323.1875 178.496094 323.324219 C 177.800781 323.460938 177.125 323.667969 176.46875 323.941406 C 175.8125 324.210938 175.1875 324.542969 174.597656 324.9375 C 174.007812 325.332031 173.460938 325.78125 172.960938 326.285156 C 172.457031 326.785156 172.007812 327.332031 171.613281 327.921875 C 171.21875 328.515625 170.886719 329.136719 170.613281 329.792969 C 170.34375 330.449219 170.136719 331.125 170 331.824219 C 169.859375 332.519531 169.792969 333.222656 169.792969 333.933594 L 169.792969 636.859375 C 169.792969 637.570312 169.859375 638.273438 170 638.96875 C 170.136719 639.667969 170.34375 640.34375 170.613281 641 C 170.886719 641.65625 171.21875 642.277344 171.613281 642.867188 C 172.007812 643.460938 172.457031 644.007812 172.960938 644.507812 C 173.460938 645.011719 174.007812 645.457031 174.597656 645.851562 C 175.1875 646.246094 175.8125 646.582031 176.46875 646.851562 C 177.125 647.125 177.800781 647.328125 178.496094 647.46875 C 179.195312 647.605469 179.898438 647.675781 180.609375 647.675781 " fill-opacity="1" fill-rule="nonzero"/></svg>