<svg xmlns="http://www.w3.org/2000/svg" xmlns:xlink="http://www.w3.org/1999/xlink" width="1080" zoomAndPan="magnify" viewBox="0 0 810 809.999993" height="1080" preserveAspectRatio="xMidYMid meet" version="1.0"><defs><clipPath id="1274ac1b42"><path d="M 204 100 L 693.605469 100 L 693.605469 728 L 204 728 Z M 204 100 " clip-rule="nonzero"/></clipPath><clipPath id="d9c73cb120"><path d="M 116.105469 74 L 663 74 L 663 668 L 116.105469 668 Z M 116.105469 74 " clip-rule="nonzero"/></clipPath></defs><g clip-path="url(#1274ac1b42)"><path fill="#ff004f" d="M 544.085938 309.898438 C 586.222656 340.03125 637.839844 357.761719 693.589844 357.761719 L 693.589844 250.441406 C 683.007812 250.445312 672.542969 249.347656 662.191406 247.152344 L 662.191406 331.628906 C 606.445312 331.628906 554.835938 313.902344 512.691406 283.773438 L 512.691406 502.78125 C 512.691406 612.34375 423.910156 701.152344 314.402344 701.152344 C 273.539062 701.152344 235.5625 688.792969 204.011719 667.597656 C 240.019531 704.433594 290.238281 727.28125 345.789062 727.28125 C 455.308594 727.28125 544.089844 638.472656 544.089844 528.90625 L 544.089844 309.898438 Z M 582.820312 201.625 C 561.285156 178.09375 547.144531 147.679688 544.085938 114.054688 L 544.085938 100.25 L 514.332031 100.25 C 521.824219 142.984375 547.367188 179.496094 582.816406 201.625 M 273.277344 583.527344 C 270.289062 579.609375 267.640625 575.472656 265.328125 571.121094 C 263.015625 566.769531 261.074219 562.257812 259.5 557.585938 C 257.929688 552.914062 256.746094 548.148438 255.949219 543.285156 C 255.15625 538.417969 254.765625 533.523438 254.773438 528.59375 C 254.773438 478.484375 295.378906 437.855469 345.480469 437.855469 C 354.871094 437.851562 364.042969 439.265625 372.996094 442.105469 L 372.996094 332.386719 C 362.59375 330.964844 352.101562 330.355469 341.613281 330.578125 L 341.613281 415.976562 C 332.65625 413.136719 323.480469 411.722656 314.082031 411.730469 C 263.984375 411.730469 223.378906 452.355469 223.378906 502.46875 C 223.378906 537.902344 243.675781 568.582031 273.277344 583.527344 " fill-opacity="1" fill-rule="nonzero"/></g><path fill="#000000" d="M 512.691406 283.769531 C 554.835938 313.898438 606.445312 331.625 662.191406 331.625 L 662.191406 247.152344 C 631.074219 240.519531 603.527344 224.253906 582.816406 201.625 C 547.367188 179.496094 521.824219 142.984375 514.332031 100.25 L 436.183594 100.25 L 436.183594 528.902344 C 436.003906 578.875 395.46875 619.335938 345.476562 619.335938 C 316.019531 619.335938 289.847656 605.289062 273.273438 583.527344 C 243.675781 568.582031 223.378906 537.902344 223.378906 502.46875 C 223.378906 452.359375 263.984375 411.730469 314.082031 411.730469 C 323.679688 411.730469 332.929688 413.226562 341.609375 415.980469 L 341.609375 330.582031 C 234.023438 332.804688 147.5 420.746094 147.5 528.902344 C 147.5 582.894531 169.046875 631.839844 204.015625 667.605469 C 235.5625 688.792969 273.539062 701.15625 314.402344 701.15625 C 423.914062 701.15625 512.695312 612.339844 512.695312 502.78125 Z M 512.691406 283.769531 " fill-opacity="1" fill-rule="nonzero"/><g clip-path="url(#d9c73cb120)"><path fill="#00f2ea" d="M 662.191406 247.148438 L 662.191406 224.3125 C 655.210938 224.320312 648.261719 223.84375 641.347656 222.882812 C 634.433594 221.917969 627.621094 220.476562 620.910156 218.558594 C 614.195312 216.640625 607.652344 214.261719 601.269531 211.425781 C 594.890625 208.589844 588.738281 205.324219 582.816406 201.625 C 588.054688 207.363281 593.703125 212.660156 599.761719 217.515625 C 605.820312 222.375 612.214844 226.734375 618.949219 230.597656 C 625.6875 234.460938 632.679688 237.78125 639.929688 240.554688 C 647.179688 243.332031 654.601562 245.53125 662.191406 247.152344 M 514.332031 100.246094 C 513.617188 96.164062 513.070312 92.054688 512.6875 87.925781 L 512.6875 74.125 L 404.78125 74.125 L 404.78125 502.78125 C 404.609375 552.746094 364.074219 593.210938 314.078125 593.210938 C 306.992188 593.21875 300 592.40625 293.105469 590.773438 C 286.210938 589.136719 279.597656 586.722656 273.269531 583.53125 C 289.84375 605.289062 316.015625 619.335938 345.472656 619.335938 C 395.464844 619.335938 436.003906 578.875 436.179688 528.902344 L 436.179688 100.25 Z M 341.613281 330.578125 L 341.613281 306.261719 C 332.585938 305.03125 323.515625 304.414062 314.40625 304.417969 C 204.882812 304.417969 116.105469 393.230469 116.105469 502.78125 C 116.105469 571.464844 150.996094 631.996094 204.019531 667.597656 C 169.046875 631.839844 147.5 582.890625 147.5 528.902344 C 147.5 420.746094 234.023438 332.804688 341.613281 330.582031 " fill-opacity="1" fill-rule="nonzero"/></g></svg>